<svg width="16" height="10" viewBox="0 0 16 10" fill="none" xmlns="http://www.w3.org/2000/svg">
<path d="M15.5 0.755036C15.2189 0.47566 14.8388 0.318848 14.4425 0.318848C14.0462 0.318848 13.666 0.47566 13.385 0.755036L7.99998 6.06504L2.68998 0.755036C2.40894 0.47566 2.02876 0.318848 1.63248 0.318848C1.23621 0.318848 0.856028 0.47566 0.574984 0.755036C0.434391 0.894481 0.3228 1.06038 0.246647 1.24317C0.170494 1.42596 0.131287 1.62202 0.131287 1.82004C0.131287 2.01805 0.170494 2.21411 0.246647 2.3969C0.3228 2.57969 0.434391 2.74559 0.574984 2.88504L6.93498 9.24504C7.07443 9.38563 7.24033 9.49722 7.42312 9.57337C7.60591 9.64953 7.80197 9.68873 7.99998 9.68873C8.198 9.68873 8.39406 9.64953 8.57685 9.57337C8.75964 9.49722 8.92554 9.38563 9.06498 9.24504L15.5 2.88504C15.6406 2.74559 15.7522 2.57969 15.8283 2.3969C15.9045 2.21411 15.9437 2.01805 15.9437 1.82004C15.9437 1.62202 15.9045 1.42596 15.8283 1.24317C15.7522 1.06038 15.6406 0.894481 15.5 0.755036Z" fill="white"/>
</svg>
