<svg width="98" height="31" viewBox="0 0 98 31" fill="none" xmlns="http://www.w3.org/2000/svg">
<path d="M0 18.8909V18.8103C0 12.6348 4.88798 7.62137 11.4689 7.62137C18.0112 7.62137 22.8566 12.5547 22.8566 18.7302V18.8103C22.8566 24.9857 17.9708 30 11.3896 30C4.84918 30 0 25.0642 0 18.8909ZM25.4954 3.04948C25.4954 1.36637 26.8356 0 28.4902 0C30.1463 0 31.4842 1.36637 31.4842 3.04948V26.7111C31.4842 28.395 30.1463 29.7589 28.4902 29.7589C26.8356 29.7589 25.4954 28.395 25.4954 26.7111V3.04948ZM34.1244 18.8909V18.8103C34.1244 12.6743 38.7348 7.62137 45.1979 7.62137C48.3895 7.62137 50.6359 8.50448 52.4094 10.0269C52.8048 10.3472 53.3545 11.0713 53.3545 12.1129C53.3545 13.6361 52.134 14.8407 50.6359 14.8407C49.8474 14.8407 49.257 14.5187 48.9021 14.2384C47.8378 13.3964 46.7351 12.8745 45.1597 12.8745C42.1635 12.8745 40.0345 15.5628 40.0345 18.7302V18.8103C40.0345 22.0994 42.1247 24.7466 45.3947 24.7466C46.9723 24.7466 48.1928 24.183 49.3362 23.2631C49.652 23.0193 50.2425 22.6995 50.9518 22.6995C52.3693 22.6995 53.4745 23.8632 53.4745 25.3077C53.4745 26.1108 53.119 26.7503 52.6064 27.233C50.8343 28.875 48.5878 30 45.1193 30C38.7752 30 34.1244 25.0269 34.1244 18.8909ZM56.4674 3.04948C56.4674 1.36637 57.8075 0 59.4619 0C61.1182 0 62.4559 1.36637 62.4559 3.04948V11.0696C63.8352 9.26609 65.6087 7.62164 68.6439 7.62164C73.1751 7.62164 75.8166 10.6697 75.8166 15.6006V26.7111C75.8166 28.395 74.4745 29.7589 72.8204 29.7589C71.1658 29.7589 69.8261 28.395 69.8261 26.7111V17.5259C69.8261 14.6391 68.4857 13.1551 66.2007 13.1551C63.9136 13.1551 62.4559 14.6391 62.4559 17.5259V26.7111C62.4559 28.395 61.1182 29.7589 59.4619 29.7589C57.8075 29.7589 56.4674 28.395 56.4674 26.7111V3.04948ZM78.5737 23.3407V23.2623C78.5737 18.5689 82.0811 16.4045 87.0849 16.4045C89.2115 16.4045 90.7503 16.7657 92.2459 17.2857V16.9261C92.2459 14.3986 90.7095 12.9957 87.715 12.9957C86.059 12.9957 84.7186 13.2349 83.5776 13.598C83.2221 13.7179 82.9855 13.7573 82.7095 13.7573C81.3311 13.7573 80.2278 12.6737 80.2278 11.2709C80.2278 10.1876 80.897 9.26582 81.8423 8.90407C83.733 8.18195 85.7828 7.78181 88.5828 7.78181C91.853 7.78181 94.2169 8.66492 95.7153 10.1876C97.2904 11.7926 98 14.1594 98 17.0457V26.832C98 28.4768 96.7005 29.76 95.0844 29.76C93.3492 29.76 92.2057 28.5157 92.2057 27.2325V27.1927C90.7503 28.8355 88.7388 29.9188 85.8218 29.9188C81.8423 29.9188 78.5737 27.5937 78.5737 23.3407ZM92.3251 21.9379V20.8549C91.3016 20.376 89.9615 20.054 88.5035 20.054C85.9412 20.054 84.3655 21.0962 84.3655 23.021V23.1016C84.3655 24.746 85.7057 25.7079 87.6363 25.7079C90.4336 25.7079 92.3251 24.1457 92.3251 21.9379ZM16.9465 18.8909V18.8103C16.9465 15.6434 14.7008 12.8745 11.3896 12.8745C7.96149 12.8745 5.91176 15.5628 5.91176 18.7302V18.8103C5.91176 21.9777 8.15821 24.7466 11.4689 24.7466C14.8992 24.7466 16.9465 22.0583 16.9465 18.8909Z" fill="#DA002B"/>
</svg>
