<svg width="20" height="20" viewBox="0 0 20 20" fill="none" xmlns="http://www.w3.org/2000/svg">
<path d="M10 3.33325L7.5 7.49992L2.91666 8.33325L6.25 12.0833L5.41666 17.0833L10 14.5833L14.5833 17.0833L13.75 12.0833L17.0833 8.33325L12.0833 7.49992L10 3.33325Z" fill="#FFCA00"/>
<path d="M18.3333 8.05845C18.2807 7.90603 18.185 7.77214 18.0578 7.67304C17.9306 7.57394 17.7773 7.51387 17.6167 7.50012L12.875 6.80845L10.75 2.50012C10.6818 2.35923 10.5752 2.24041 10.4426 2.15727C10.3099 2.07413 10.1565 2.03003 10 2.03003C9.84345 2.03003 9.69007 2.07413 9.55743 2.15727C9.42478 2.24041 9.31824 2.35923 9.25 2.50012L7.125 6.80012L2.38333 7.50012C2.2291 7.52204 2.0841 7.58676 1.96479 7.68692C1.84548 7.78708 1.75663 7.91868 1.70833 8.06679C1.66412 8.21152 1.66015 8.36555 1.69686 8.51237C1.73356 8.65918 1.80955 8.79323 1.91667 8.90012L5.35833 12.2335L4.525 16.9668C4.49525 17.123 4.51083 17.2845 4.56989 17.4322C4.62896 17.5798 4.72904 17.7075 4.85833 17.8001C4.98435 17.8902 5.13298 17.9434 5.28754 17.9537C5.4421 17.964 5.59647 17.931 5.73333 17.8585L10 15.6335L14.25 17.8668C14.367 17.9328 14.499 17.9672 14.6333 17.9668C14.8099 17.9674 14.982 17.912 15.125 17.8085C15.2543 17.7158 15.3544 17.5882 15.4134 17.4405C15.4725 17.2928 15.4881 17.1314 15.4583 16.9751L14.625 12.2418L18.0667 8.90845C18.187 8.80652 18.2759 8.67254 18.3231 8.52208C18.3703 8.37162 18.3739 8.21085 18.3333 8.05845ZM13.2083 11.3918C13.1106 11.4863 13.0375 11.6033 12.9954 11.7326C12.9532 11.8619 12.9434 11.9995 12.9667 12.1335L13.5667 15.6251L10.4333 13.9585C10.3128 13.8943 10.1783 13.8607 10.0417 13.8607C9.90507 13.8607 9.77057 13.8943 9.65 13.9585L6.51667 15.6251L7.11667 12.1335C7.13995 11.9995 7.13009 11.8619 7.08797 11.7326C7.04585 11.6033 6.97273 11.4863 6.875 11.3918L4.375 8.89179L7.88333 8.38345C8.01833 8.36468 8.14666 8.31307 8.25708 8.23316C8.3675 8.15326 8.45663 8.04749 8.51667 7.92512L10 4.75012L11.5667 7.93345C11.6267 8.05582 11.7158 8.16159 11.8263 8.2415C11.9367 8.32141 12.065 8.37301 12.2 8.39179L15.7083 8.90012L13.2083 11.3918Z" fill="#FFCA00"/>
</svg>
